<svg width="500" height="275" viewBox="0 0 500 275" fill="none" xmlns="http://www.w3.org/2000/svg">
<path d="M497 138H3V23.6653L5.48327 23.2643C57.1353 14.922 147.42 3 247.516 3C348.464 3 441.487 14.9209 494.514 23.4338L497 23.8329V138Z" fill="#004898"/>
<path d="M497 138H3V251.996L5.48455 252.396C58.338 260.908 151.534 273 252.655 273C350.186 273 441.842 260.907 494.508 252.567L497 252.173V138Z" fill="#FFD51F"/>
<path d="M425.451 74.764C425.451 68.7068 429.438 65.5916 437.24 65.5916C445.215 65.5916 449.203 68.5337 449.203 74.764V76.4947H425.624V74.764H425.451ZM463.939 77.8792C463.939 60.5727 455.097 51.9195 437.587 51.9195C419.036 51.9195 409.674 60.9188 409.674 78.9176V88.4362C409.674 106.781 419.556 114.742 441.054 114.742C446.949 114.742 451.803 114.223 455.617 113.184C460.818 111.8 462.032 110.588 462.032 105.397V104.012C462.032 98.3008 460.818 97.2625 455.617 98.3008C450.416 99.3392 445.562 100.031 441.054 100.031C429.958 100.031 425.277 97.0894 425.277 90.8591V89.1284H455.964C461.685 89.1284 463.246 87.917 463.766 82.552C463.939 81.1674 463.939 79.6099 463.939 77.8792ZM360.437 76.3216C360.437 69.5721 362.864 66.8031 372.053 66.8031C381.241 66.8031 383.495 69.5721 383.495 76.3216V106.781C383.495 112.146 384.882 113.531 390.257 113.531H392.51C397.885 113.531 399.272 112.146 399.272 106.781V76.3216C399.272 60.0535 390.95 52.0925 372.053 52.0925C353.849 52.0925 344.66 60.3997 344.66 76.3216V106.781C344.66 112.146 346.047 113.531 351.422 113.531H353.675C359.05 113.531 360.437 112.146 360.437 106.781V76.3216ZM294.036 76.3216C294.036 69.5721 296.463 66.8031 305.652 66.8031C314.841 66.8031 317.094 69.5721 317.094 76.3216V106.781C317.094 112.146 318.481 113.531 323.856 113.531H326.11C331.484 113.531 332.871 112.146 332.871 106.781V76.3216C332.871 60.0535 324.549 52.0925 305.652 52.0925C287.448 52.0925 278.259 60.3997 278.259 76.3216V106.781C278.259 112.146 279.646 113.531 285.021 113.531H287.275C292.649 113.531 294.036 112.146 294.036 106.781V76.3216ZM229.196 74.764C229.196 68.7068 233.183 65.5916 240.985 65.5916C248.96 65.5916 252.947 68.5337 252.947 74.764V76.4947H229.369L229.196 74.764ZM267.857 77.8792C267.857 60.5727 259.015 51.9195 241.505 51.9195C222.954 51.9195 213.592 60.9188 213.592 78.9176V88.4362C213.592 106.781 223.474 114.742 244.972 114.742C250.867 114.742 255.721 114.223 259.709 113.184C264.91 111.8 266.123 110.588 266.123 105.397V104.012C266.123 98.3008 264.91 97.2625 259.709 98.3008C254.508 99.3392 249.653 100.031 245.146 100.031C234.05 100.031 229.369 97.0894 229.369 90.8591V89.1284H259.882C265.603 89.1284 267.164 87.917 267.684 82.552C267.684 81.1674 267.857 79.6099 267.857 77.8792ZM158.114 62.3034C158.114 67.1492 159.327 68.3606 164.182 68.3606H169.036V91.8974C169.036 107.127 176.664 114.742 192.268 114.742C195.735 114.742 198.682 114.569 200.589 114.05C205.791 113.011 207.178 110.935 207.178 105.57V104.185C207.178 98.9931 205.964 98.3009 200.589 99.3392C198.162 99.8584 195.388 100.031 192.268 100.031C187.24 100.031 184.639 97.4355 184.639 92.0705V68.1876H198.336C203.71 68.1876 205.097 66.8031 205.097 61.438V60.0535C205.097 54.6885 203.71 53.304 198.336 53.304H184.639V43.9585C184.639 38.7666 183.599 37.7282 178.398 37.7282H177.705C172.503 37.7282 171.117 38.9396 170.423 43.7854L169.036 53.304L164.182 54.3424C159.501 55.3808 158.287 56.7653 158.287 61.6111V62.3034H158.114ZM113.904 76.3216C113.904 69.5721 116.331 66.8031 125.52 66.8031C134.709 66.8031 136.963 69.5721 136.963 76.3216V106.781C136.963 112.146 138.35 113.531 143.724 113.531H145.978C151.352 113.531 152.739 112.146 152.739 106.781V76.3216C152.739 60.0535 144.417 52.0925 125.52 52.0925C107.316 52.0925 98.1276 60.3997 98.1276 76.3216V106.781C98.1276 112.146 99.5146 113.531 104.889 113.531H107.143C112.517 113.531 113.904 112.146 113.904 106.781V76.3216ZM72.1221 94.6665C71.6019 101.07 67.6144 101.935 61.3731 101.762C55.4785 101.935 51.6644 101.243 51.1442 95.5318C51.1442 91.0321 54.0915 88.9554 59.6394 88.9554H71.9487V94.6665H72.1221ZM87.7254 72.6873C87.7254 57.8037 77.4965 52.0925 58.5992 52.0925C55.1318 52.0925 51.8377 52.2656 48.8904 52.6117C43.6893 53.4771 42.4757 54.6885 42.4757 59.8805V60.3997C42.4757 65.5916 43.8627 66.8031 49.2372 66.1108C52.8779 65.5916 56.3454 65.4185 59.6394 65.4185C67.9612 65.4185 72.1221 66.9761 72.1221 72.6873V77.1869H59.9861C43.6893 77.1869 35.5409 83.4173 35.5409 95.8779C35.5409 108.512 43.516 114.742 61.5465 114.742C79.7504 114.742 87.552 108.339 87.552 95.3587V72.6873H87.7254Z" fill="white"/>
<path d="M391.123 198.159C391.123 191.237 393.551 188.468 402.912 188.468C412.274 188.468 414.528 191.237 414.528 198.159V229.138C414.528 234.676 415.915 236.06 421.463 236.06H423.717C429.265 236.06 430.652 234.676 430.652 229.138V198.159C430.652 181.545 422.157 173.411 402.912 173.411C384.362 173.411 375 181.891 375 198.159V229.138C375 234.676 376.387 236.06 381.935 236.06H384.189C389.736 236.06 391.123 234.676 391.123 229.138V198.159ZM350.035 196.948C350.035 190.891 351.942 188.468 359.397 188.468H360.784C365.811 188.814 367.025 187.948 367.025 182.583V181.199C367.025 175.488 365.638 173.411 360.784 173.411H359.397C342.753 173.411 333.911 181.026 333.911 195.563V228.965C333.911 234.503 335.298 235.887 340.846 235.887H343.1C348.648 235.887 350.035 234.503 350.035 228.965V196.948ZM283.287 196.602C283.287 190.371 287.274 187.256 295.249 187.256C303.398 187.256 307.385 190.371 307.385 196.602V198.505H283.287V196.602ZM322.469 199.89C322.469 182.237 313.453 173.584 295.596 173.584C276.699 173.584 267.164 182.756 267.164 201.101V210.793C267.164 229.484 277.219 237.618 299.064 237.618C305.132 237.618 309.986 237.099 313.974 236.06C319.348 234.676 320.388 233.464 320.388 228.099V226.715C320.388 221.004 319.175 219.792 313.974 220.831C308.599 221.869 303.745 222.561 299.237 222.561C287.968 222.561 283.287 219.619 283.287 213.216V211.312H314.32C320.041 211.312 321.602 210.101 322.295 204.563C322.469 203.178 322.469 201.621 322.469 199.89ZM216.366 181.718C214.979 176.353 213.592 174.969 208.044 174.969H205.27C199.722 174.969 198.856 176.353 199.896 181.718L208.911 220.485C211.685 232.253 214.806 237.618 224.861 237.618C227.115 237.618 228.849 237.445 229.889 237.099C228.329 244.021 223.821 248.175 216.539 249.733C211.512 250.771 210.471 252.155 211.858 257.347L212.032 258.04C213.072 263.751 214.459 264.443 220.18 263.578C233.356 261.674 242.545 254.059 246.532 235.887L259.015 181.545C260.055 176.18 259.188 174.796 253.641 174.796H250.867C245.319 174.796 243.932 176.18 242.545 181.545L234.397 218.408C233.356 222.388 232.143 223.6 229.889 223.6C226.421 223.6 225.035 222.908 224.168 218.408L216.366 181.718ZM174.757 217.023C174.064 223.6 170.076 224.292 163.835 224.292C157.767 224.465 153.953 223.773 153.433 217.889C153.433 213.389 156.38 211.139 162.101 211.139H174.757V217.023ZM190.707 194.525C190.707 179.295 180.305 173.584 161.061 173.584C157.593 173.584 154.126 173.757 151.179 174.276C145.978 175.142 144.591 176.526 144.591 181.718V182.237C144.591 187.602 145.978 188.814 151.526 187.948C155.166 187.429 158.807 187.256 162.101 187.256C170.596 187.256 174.757 188.814 174.757 194.698V199.371H162.448C145.978 199.371 137.656 205.774 137.656 218.408C137.656 231.215 145.804 237.791 164.182 237.791C182.732 237.791 190.707 231.388 190.707 218.062V194.525ZM112.691 210.447C112.691 219.1 110.263 222.561 99.5144 222.561C89.1122 222.561 86.1649 218.927 86.1649 210.447V200.755C86.1649 192.275 89.1122 188.641 99.5144 188.641C109.917 188.641 112.691 192.275 112.691 200.755V210.447ZM70.2148 210.793C70.2148 228.965 81.8306 237.618 99.341 237.618C118.759 237.618 128.641 228.619 128.641 210.793V201.101C128.641 183.449 119.625 173.584 102.982 173.584C95.3535 173.584 89.6323 175.834 86.1649 180.507V157.489C86.1649 151.951 84.7779 150.566 79.2301 150.566H76.9763C71.4284 150.566 70.0414 151.951 70.0414 157.489V210.793H70.2148Z" fill="#004898"/>
<path fill-rule="evenodd" clip-rule="evenodd" d="M2.51343 20.6395C54.7928 12.1428 146.174 0 247.486 0C349.66 0 443.812 12.1417 497.484 20.8122L500 21.2187V253.787L497.477 254.189C444.172 262.683 351.402 275 252.688 275C150.338 275 56.0102 262.685 2.51473 254.014L0 253.607V21.048L2.51343 20.6395ZM5.98917 26.1348V248.518C59.7147 257.132 152.358 269.021 252.688 269.021C349.417 269.021 440.481 257.136 494.011 248.684V26.3105C440.128 17.7018 347.651 5.97939 247.486 5.97939C148.219 5.97939 58.4777 17.6914 5.98917 26.1348Z" fill="white"/>
</svg>
